<svg xmlns="http://www.w3.org/2000/svg" viewBox="0 0 79.37 89.83"><defs><style>.cls-1{fill:#4b647f;}.cls-2{fill:#6386a5;}.cls-3{fill:#e2e2e2;}.cls-4{fill:#fff;}</style></defs><g id="Layer_2" data-name="Layer 2"><g id="Layer_1-2" data-name="Layer 1"><g id="code_html5"><polygon class="cls-1" points="79.37 0 39.69 0 39.69 0 0 0 7.44 80.69 39.69 89.83 39.69 89.83 39.69 89.83 39.69 89.83 39.69 89.83 71.92 80.69 79.37 0"/><polygon class="cls-2" points="39.69 6.57 39.69 82.99 39.69 82.99 65.8 75.59 72.16 6.57 39.69 6.57"/><path class="cls-3" d="M39.52,50.42a7.7,7.7,0,1,1,0-15.4h.17V19.66c-1.16,0-2.31,0-3.46,0a1,1,0,0,0-1.15.95c-.29,1.68-.55,3.36-.79,5.05a.61.61,0,0,1-.45.57c-.72.27-1.42.6-2.13.89a.48.48,0,0,1-.39,0q-1.84-1.41-3.66-2.83c-.88-.7-1.28-.71-2.2.05a34.62,34.62,0,0,0-4.54,4.6c-.57.7-.55,1.05,0,1.76l2.92,3.75a.42.42,0,0,1,0,.52c-.33.73-.65,1.45-.94,2.2a.45.45,0,0,1-.4.33c-1.57.23-3.13.49-4.7.69a1.59,1.59,0,0,0-1.4.89v7.22a1.45,1.45,0,0,0,1.35.9c1.56.2,3.11.44,4.66.67a.53.53,0,0,1,.49.4c.28.77.6,1.53.94,2.27a.56.56,0,0,1-.05.66c-1,1.23-1.93,2.48-2.88,3.73A1.26,1.26,0,0,0,21,56.57,45.34,45.34,0,0,0,25.7,61.3a1.08,1.08,0,0,0,1.67.1c1.34-1,2.67-2,4-3a.48.48,0,0,1,.37,0c.76.3,1.5.63,2.25.92a.39.39,0,0,1,.29.36c.24,1.61.51,3.22.73,4.84a1.42,1.42,0,0,0,.88,1.32h3.79V50.41Z"/><path class="cls-4" d="M61.39,38.31l-4.88-.73a.5.5,0,0,1-.43-.37q-.45-1.17-1-2.31a.48.48,0,0,1,.05-.59c1-1.24,1.94-2.5,2.9-3.76A1.23,1.23,0,0,0,58,28.9a49.11,49.11,0,0,0-4.68-4.78A1.1,1.1,0,0,0,51.67,24l-4,3a.54.54,0,0,1-.41.06c-.75-.29-1.47-.62-2.22-.91a.4.4,0,0,1-.31-.38c-.25-1.7-.52-3.4-.78-5.09a1.08,1.08,0,0,0-1.19-1.05c-1,0-2,0-3.06,0V35a7.69,7.69,0,0,1,0,15.38V65.79h3.5A1.45,1.45,0,0,0,44,64.54c.24-1.62.5-3.23.73-4.84a.5.5,0,0,1,.35-.45c.74-.29,1.46-.62,2.2-.92a.51.51,0,0,1,.42.05c1.2.92,2.4,1.86,3.6,2.8.9.72,1.32.74,2.23,0a35.07,35.07,0,0,0,4.57-4.63c.56-.69.54-1.05,0-1.76l-2.9-3.72a.49.49,0,0,1-.06-.59c.34-.72.63-1.46,1-2.18a.5.5,0,0,1,.32-.27c1.68-.27,3.37-.53,5.06-.78A1.13,1.13,0,0,0,62.57,46c0-2.11,0-4.23,0-6.34A1.18,1.18,0,0,0,61.39,38.31Z"/></g></g></g></svg>